<svg id="instagram" xmlns="http://www.w3.org/2000/svg" width="25.835" height="25.836" viewBox="0 0 25.835 25.836">
  <path id="Caminho_1" data-name="Caminho 1" d="M271.62,68.713a1.515,1.515,0,1,0,1.515,1.515A1.515,1.515,0,0,0,271.62,68.713Z" transform="translate(-251.863 -64.1)" fill="#fff"/>
  <path id="Caminho_2" data-name="Caminho 2" d="M268.782,70a6.362,6.362,0,1,0,6.362,6.362A6.37,6.37,0,0,0,268.782,70Zm0,10.439a4.076,4.076,0,1,1,4.076-4.076A4.08,4.08,0,0,1,268.782,80.441Z" transform="translate(-255.759 -63.447)" fill="#fff"/>
  <path id="Caminho_3" data-name="Caminho 3" d="M276.075,91.488H265.761A7.769,7.769,0,0,1,258,83.728V73.413a7.769,7.769,0,0,1,7.761-7.761h10.314a7.769,7.769,0,0,1,7.761,7.761V83.728A7.769,7.769,0,0,1,276.075,91.488Zm-10.314-23.4a5.336,5.336,0,0,0-5.33,5.33V83.728a5.335,5.335,0,0,0,5.33,5.329h10.314a5.336,5.336,0,0,0,5.33-5.329V73.413a5.337,5.337,0,0,0-5.33-5.33Z" transform="translate(-258 -65.652)" fill="#fff"/>
</svg>
