<svg id="linkedin" xmlns="http://www.w3.org/2000/svg" width="20.569" height="20.52" viewBox="0 0 20.569 20.52">
  <path id="Caminho_4" data-name="Caminho 4" d="M218.085,158.782h4.268V172.49h-4.268Zm2.134-6.812a2.471,2.471,0,1,1-2.473,2.468,2.47,2.47,0,0,1,2.473-2.468" transform="translate(-217.746 -151.97)" fill="#fff"/>
  <path id="Caminho_5" data-name="Caminho 5" d="M222.577,156.6h4.087v1.876h.056a4.483,4.483,0,0,1,4.036-2.215c4.314,0,5.11,2.838,5.11,6.53v7.518h-4.259v-6.664c0-1.591-.032-3.636-2.215-3.636-2.217,0-2.556,1.732-2.556,3.519v6.781h-4.259Z" transform="translate(-215.297 -149.793)" fill="#fff"/>
</svg>
