<svg xmlns="http://www.w3.org/2000/svg" width="24.031" height="19.78" viewBox="0 0 24.031 19.78">
  <path id="twitter" d="M325.186,70.011a9.962,9.962,0,0,1-2.431.693c.39-.065.964-.773,1.2-1.059a4.47,4.47,0,0,0,.806-1.471c.021-.042.036-.095,0-.127a.139.139,0,0,0-.13.011,12.411,12.411,0,0,1-2.881,1.1.192.192,0,0,1-.2-.053,2.271,2.271,0,0,0-.252-.258A5.1,5.1,0,0,0,319.9,68a4.86,4.86,0,0,0-2.141-.345,5.108,5.108,0,0,0-2.031.574,5.227,5.227,0,0,0-1.638,1.338,5.022,5.022,0,0,0-.978,1.959,5.283,5.283,0,0,0-.051,2.069c.015.116,0,.131-.1.116a15.4,15.4,0,0,1-9.9-5.039c-.115-.133-.178-.133-.273.009a5.023,5.023,0,0,0,.856,5.933c.194.184.393.368.609.535a5.045,5.045,0,0,1-1.911-.535c-.116-.074-.173-.032-.184.1a3.054,3.054,0,0,0,.032.567,5.077,5.077,0,0,0,3.128,4.048,2.926,2.926,0,0,0,.636.194,5.659,5.659,0,0,1-1.875.057c-.137-.026-.188.042-.137.173a5.273,5.273,0,0,0,3.938,3.3c.178.032.357.032.536.074-.011.015-.023.015-.032.032-.443.674-1.976,1.175-2.69,1.424a9.619,9.619,0,0,1-4.082.523c-.22-.032-.267-.03-.325,0s-.008.09.063.146c.277.184.561.347.85.5a13.516,13.516,0,0,0,2.729,1.093,14.542,14.542,0,0,0,14.116-3.3c2.892-2.875,3.906-6.839,3.906-10.806,0-.155.184-.241.292-.322a9.589,9.589,0,0,0,1.921-2,.613.613,0,0,0,.127-.383v-.021C325.284,69.948,325.283,69.968,325.186,70.011Z" transform="translate(-301.254 -67.641)" fill="#fff"/>
</svg>
