<svg xmlns="http://www.w3.org/2000/svg" width="28.822" height="20.266" viewBox="0 0 28.822 20.266">
  <path id="youtube" d="M29.27,7.671a3.622,3.622,0,0,0-2.548-2.565C24.474,4.5,15.461,4.5,15.461,4.5S6.448,4.5,4.2,5.106A3.622,3.622,0,0,0,1.652,7.671a37.991,37.991,0,0,0-.6,6.982,37.991,37.991,0,0,0,.6,6.982A3.568,3.568,0,0,0,4.2,24.159c2.248.606,11.261.606,11.261.606s9.013,0,11.261-.606a3.568,3.568,0,0,0,2.548-2.524,37.991,37.991,0,0,0,.6-6.982,37.991,37.991,0,0,0-.6-6.982ZM12.513,18.939V10.368l7.533,4.286-7.533,4.285Z" transform="translate(-1.05 -4.5)" fill="#fff"/>
</svg>
